<?xml version="1.0" encoding="utf-8"?>
<!-- Generator: Adobe Illustrator 18.0.0, SVG Export Plug-In . SVG Version: 6.00 Build 0)  -->
<!DOCTYPE svg PUBLIC "-//W3C//DTD SVG 1.1//EN" "http://www.w3.org/Graphics/SVG/1.1/DTD/svg11.dtd">
<svg version="1.1" id="Слой_1" xmlns="http://www.w3.org/2000/svg" xmlns:xlink="http://www.w3.org/1999/xlink" x="0px" y="0px"
	 viewBox="103.1 109.1 8.4 6.9" enable-background="new 103.1 109.1 8.4 6.9" xml:space="preserve">
<g>
	<g>
		<g>
			<rect id="SVGID_1_" x="103.1" y="109.3" fill="none" width="8.4" height="6.8"/>
		</g>
		<g>
			<defs>
				<rect id="SVGID_2_" x="103.1" y="109.3" width="8.4" height="6.8"/>
			</defs>
			<clipPath id="SVGID_3_">
				<use xlink:href="#SVGID_2_"  overflow="visible"/>
			</clipPath>
			<path clip-path="url(#SVGID_3_)" fill="#FFFFFF" d="M107.3,115.2c0,0.1-0.1,0.3-0.2,0.3c-0.1,0-0.1,0-0.2,0c-0.1,0-0.2,0-0.2-0.1
				l-2.1-1.7h-1.1c-0.2,0-0.4-0.2-0.4-0.4v-1.5c0-0.2,0.2-0.4,0.4-0.4h1.1l2.1-1.7c0.1-0.1,0.3-0.1,0.4-0.1c0.1,0.1,0.2,0.2,0.2,0.3
				V115.2z M108.8,114.6C108.8,114.6,108.8,114.6,108.8,114.6c-0.1,0-0.2,0-0.3-0.1l-0.1-0.1c-0.1-0.1-0.1-0.3,0-0.5
				c0.3-0.4,0.4-0.8,0.4-1.3c0-0.5-0.2-1-0.5-1.4c-0.1-0.1-0.1-0.4,0-0.5l0.1-0.1c0.1-0.1,0.2-0.1,0.3-0.1s0.2,0.1,0.3,0.1
				c0.5,0.6,0.7,1.2,0.7,1.9c0,0.7-0.2,1.3-0.6,1.8C109,114.5,108.9,114.6,108.8,114.6L108.8,114.6z M110.4,115.8
				c-0.1,0.1-0.2,0.1-0.3,0.1h0c-0.1,0-0.2,0-0.3-0.1l0,0c-0.1-0.1-0.1-0.4,0-0.5c0.6-0.7,1-1.7,1-2.6c0-1-0.4-1.9-1-2.7
				c-0.1-0.1-0.1-0.4,0-0.5l0,0c0.1-0.1,0.2-0.1,0.3-0.1c0.1,0,0.2,0,0.3,0.1c0.8,0.9,1.2,2,1.2,3.2
				C111.5,113.8,111.1,114.9,110.4,115.8L110.4,115.8z"/>
		</g>
	</g>
</g>
<rect x="107.1" y="107.5" transform="matrix(0.6439 0.7651 -0.7651 0.6439 124.331 -42.0654)" fill="#FFFFFF" width="0.5" height="10.1"/>
</svg>
